<mxfile host="Electron" modified="2023-12-29T04:40:46.878Z" agent="Mozilla/5.0 (Windows NT 10.0; Win64; x64) AppleWebKit/537.36 (KHTML, like Gecko) draw.io/21.2.8 Chrome/112.0.5615.165 Electron/24.2.0 Safari/537.36" etag="l6CIu7ZSg0w3AmLDcjt0" version="21.2.8" type="device">
  <diagram name="Page-1" id="Dp2LCQyxZGAmDatRVv9P">
    <mxGraphModel dx="1931" dy="667" grid="1" gridSize="10" guides="1" tooltips="1" connect="1" arrows="1" fold="1" page="1" pageScale="1" pageWidth="827" pageHeight="1169" math="0" shadow="0">
      <root>
        <mxCell id="0" />
        <mxCell id="1" parent="0" />
        <mxCell id="cPJQanP_NMV2ZF2t2-Fl-1" value="&lt;font size=&quot;1&quot; style=&quot;&quot; color=&quot;#ffffff&quot; face=&quot;Verdana&quot;&gt;&lt;b style=&quot;font-size: 14px;&quot;&gt;A&lt;/b&gt;&lt;/font&gt;" style="ellipse;whiteSpace=wrap;html=1;aspect=fixed;fillColor=#e51400;fontColor=#ffffff;strokeColor=#B20000;" parent="1" vertex="1">
          <mxGeometry x="20" y="200" width="40" height="40" as="geometry" />
        </mxCell>
        <mxCell id="cPJQanP_NMV2ZF2t2-Fl-2" value="&lt;font size=&quot;1&quot; style=&quot;&quot; color=&quot;#ffffff&quot; face=&quot;Verdana&quot;&gt;&lt;b style=&quot;font-size: 14px;&quot;&gt;B&lt;/b&gt;&lt;/font&gt;" style="ellipse;whiteSpace=wrap;html=1;aspect=fixed;fillColor=#000000;" parent="1" vertex="1">
          <mxGeometry x="-50" y="261" width="40" height="40" as="geometry" />
        </mxCell>
        <mxCell id="cPJQanP_NMV2ZF2t2-Fl-3" value="" style="endArrow=classic;html=1;rounded=0;exitX=0;exitY=1;exitDx=0;exitDy=0;entryX=1;entryY=0;entryDx=0;entryDy=0;" parent="1" source="cPJQanP_NMV2ZF2t2-Fl-1" target="cPJQanP_NMV2ZF2t2-Fl-2" edge="1">
          <mxGeometry width="50" height="50" relative="1" as="geometry">
            <mxPoint x="289" y="330" as="sourcePoint" />
            <mxPoint x="-16.857864376268935" y="265.85786437626894" as="targetPoint" />
          </mxGeometry>
        </mxCell>
        <mxCell id="cPJQanP_NMV2ZF2t2-Fl-5" value="" style="endArrow=classic;html=1;rounded=0;exitX=1;exitY=1;exitDx=0;exitDy=0;entryX=0;entryY=0;entryDx=0;entryDy=0;" parent="1" source="cPJQanP_NMV2ZF2t2-Fl-1" target="cPJQanP_NMV2ZF2t2-Fl-6" edge="1">
          <mxGeometry width="50" height="50" relative="1" as="geometry">
            <mxPoint x="289" y="330" as="sourcePoint" />
            <mxPoint x="141.6170993996443" y="272.121614028419" as="targetPoint" />
          </mxGeometry>
        </mxCell>
        <mxCell id="cPJQanP_NMV2ZF2t2-Fl-6" value="&lt;font size=&quot;1&quot; style=&quot;&quot; color=&quot;#ffffff&quot; face=&quot;Verdana&quot;&gt;&lt;b style=&quot;font-size: 14px;&quot;&gt;D&lt;/b&gt;&lt;/font&gt;" style="ellipse;whiteSpace=wrap;html=1;aspect=fixed;fillColor=#000000;" parent="1" vertex="1">
          <mxGeometry x="90" y="266" width="40" height="40" as="geometry" />
        </mxCell>
        <mxCell id="cPJQanP_NMV2ZF2t2-Fl-7" value="&lt;font size=&quot;1&quot; style=&quot;&quot; color=&quot;#ffffff&quot; face=&quot;Verdana&quot;&gt;&lt;b style=&quot;font-size: 14px;&quot;&gt;E&lt;/b&gt;&lt;/font&gt;" style="ellipse;whiteSpace=wrap;html=1;aspect=fixed;fillColor=#e51400;fontColor=#ffffff;strokeColor=#B20000;" parent="1" vertex="1">
          <mxGeometry x="30" y="330" width="40" height="40" as="geometry" />
        </mxCell>
        <mxCell id="cPJQanP_NMV2ZF2t2-Fl-8" value="" style="endArrow=classic;html=1;rounded=0;exitX=0;exitY=1;exitDx=0;exitDy=0;entryX=1;entryY=0;entryDx=0;entryDy=0;" parent="1" source="cPJQanP_NMV2ZF2t2-Fl-6" target="cPJQanP_NMV2ZF2t2-Fl-7" edge="1">
          <mxGeometry width="50" height="50" relative="1" as="geometry">
            <mxPoint x="360" y="460" as="sourcePoint" />
            <mxPoint x="410" y="410" as="targetPoint" />
          </mxGeometry>
        </mxCell>
        <mxCell id="cPJQanP_NMV2ZF2t2-Fl-10" value="" style="endArrow=classic;html=1;rounded=0;dashed=1;strokeWidth=2;" parent="1" edge="1">
          <mxGeometry width="50" height="50" relative="1" as="geometry">
            <mxPoint x="215" y="296" as="sourcePoint" />
            <mxPoint x="295" y="296" as="targetPoint" />
          </mxGeometry>
        </mxCell>
        <mxCell id="cPJQanP_NMV2ZF2t2-Fl-11" value="&lt;font style=&quot;font-size: 16px;&quot;&gt;变色&lt;/font&gt;" style="text;html=1;align=center;verticalAlign=middle;resizable=0;points=[];autosize=1;strokeColor=none;fillColor=none;" parent="1" vertex="1">
          <mxGeometry x="220" y="266" width="60" height="30" as="geometry" />
        </mxCell>
        <mxCell id="cPJQanP_NMV2ZF2t2-Fl-39" value="" style="endArrow=classic;html=1;rounded=0;dashed=1;strokeWidth=2;" parent="1" edge="1">
          <mxGeometry width="50" height="50" relative="1" as="geometry">
            <mxPoint x="630" y="296" as="sourcePoint" />
            <mxPoint x="740" y="296" as="targetPoint" />
          </mxGeometry>
        </mxCell>
        <mxCell id="K3IvD1-hRMfwmRw_c2fl-1" value="&lt;font size=&quot;1&quot; style=&quot;&quot; color=&quot;#ffffff&quot; face=&quot;Verdana&quot;&gt;&lt;b style=&quot;font-size: 14px;&quot;&gt;F&lt;/b&gt;&lt;/font&gt;" style="ellipse;whiteSpace=wrap;html=1;aspect=fixed;fillColor=#e51400;fontColor=#ffffff;strokeColor=#B20000;" vertex="1" parent="1">
          <mxGeometry x="150" y="330" width="40" height="40" as="geometry" />
        </mxCell>
        <mxCell id="K3IvD1-hRMfwmRw_c2fl-2" value="" style="endArrow=classic;html=1;rounded=0;exitX=1;exitY=1;exitDx=0;exitDy=0;entryX=0;entryY=0;entryDx=0;entryDy=0;" edge="1" parent="1" source="cPJQanP_NMV2ZF2t2-Fl-6" target="K3IvD1-hRMfwmRw_c2fl-1">
          <mxGeometry width="50" height="50" relative="1" as="geometry">
            <mxPoint x="290" y="410" as="sourcePoint" />
            <mxPoint x="340" y="360" as="targetPoint" />
          </mxGeometry>
        </mxCell>
        <mxCell id="K3IvD1-hRMfwmRw_c2fl-3" value="&lt;font size=&quot;1&quot; style=&quot;&quot; color=&quot;#ffffff&quot; face=&quot;Verdana&quot;&gt;&lt;b style=&quot;font-size: 14px;&quot;&gt;A&lt;/b&gt;&lt;/font&gt;" style="ellipse;whiteSpace=wrap;html=1;aspect=fixed;fillColor=#000000;fontColor=#ffffff;strokeColor=#000000;" vertex="1" parent="1">
          <mxGeometry x="420" y="200" width="40" height="40" as="geometry" />
        </mxCell>
        <mxCell id="K3IvD1-hRMfwmRw_c2fl-4" value="&lt;font size=&quot;1&quot; style=&quot;&quot; color=&quot;#ffffff&quot; face=&quot;Verdana&quot;&gt;&lt;b style=&quot;font-size: 14px;&quot;&gt;B&lt;/b&gt;&lt;/font&gt;" style="ellipse;whiteSpace=wrap;html=1;aspect=fixed;fillColor=#000000;" vertex="1" parent="1">
          <mxGeometry x="350" y="261" width="40" height="40" as="geometry" />
        </mxCell>
        <mxCell id="K3IvD1-hRMfwmRw_c2fl-5" value="" style="endArrow=classic;html=1;rounded=0;exitX=0;exitY=1;exitDx=0;exitDy=0;entryX=1;entryY=0;entryDx=0;entryDy=0;" edge="1" parent="1" source="K3IvD1-hRMfwmRw_c2fl-3" target="K3IvD1-hRMfwmRw_c2fl-4">
          <mxGeometry width="50" height="50" relative="1" as="geometry">
            <mxPoint x="689" y="330" as="sourcePoint" />
            <mxPoint x="383.14213562373106" y="265.85786437626894" as="targetPoint" />
          </mxGeometry>
        </mxCell>
        <mxCell id="K3IvD1-hRMfwmRw_c2fl-6" value="" style="endArrow=classic;html=1;rounded=0;exitX=1;exitY=1;exitDx=0;exitDy=0;entryX=0;entryY=0;entryDx=0;entryDy=0;" edge="1" parent="1" source="K3IvD1-hRMfwmRw_c2fl-3" target="K3IvD1-hRMfwmRw_c2fl-7">
          <mxGeometry width="50" height="50" relative="1" as="geometry">
            <mxPoint x="689" y="330" as="sourcePoint" />
            <mxPoint x="541.6170993996443" y="272.121614028419" as="targetPoint" />
          </mxGeometry>
        </mxCell>
        <mxCell id="K3IvD1-hRMfwmRw_c2fl-7" value="&lt;font size=&quot;1&quot; style=&quot;&quot; color=&quot;#ffffff&quot; face=&quot;Verdana&quot;&gt;&lt;b style=&quot;font-size: 14px;&quot;&gt;D&lt;/b&gt;&lt;/font&gt;" style="ellipse;whiteSpace=wrap;html=1;aspect=fixed;fillColor=#e51400;fontColor=#ffffff;strokeColor=#B20000;" vertex="1" parent="1">
          <mxGeometry x="490" y="266" width="40" height="40" as="geometry" />
        </mxCell>
        <mxCell id="K3IvD1-hRMfwmRw_c2fl-8" value="&lt;font size=&quot;1&quot; style=&quot;&quot; color=&quot;#ffffff&quot; face=&quot;Verdana&quot;&gt;&lt;b style=&quot;font-size: 14px;&quot;&gt;E&lt;/b&gt;&lt;/font&gt;" style="ellipse;whiteSpace=wrap;html=1;aspect=fixed;fillColor=#e51400;fontColor=#ffffff;strokeColor=#B20000;" vertex="1" parent="1">
          <mxGeometry x="430" y="330" width="40" height="40" as="geometry" />
        </mxCell>
        <mxCell id="K3IvD1-hRMfwmRw_c2fl-9" value="" style="endArrow=classic;html=1;rounded=0;exitX=0;exitY=1;exitDx=0;exitDy=0;entryX=1;entryY=0;entryDx=0;entryDy=0;" edge="1" parent="1" source="K3IvD1-hRMfwmRw_c2fl-7" target="K3IvD1-hRMfwmRw_c2fl-8">
          <mxGeometry width="50" height="50" relative="1" as="geometry">
            <mxPoint x="760" y="460" as="sourcePoint" />
            <mxPoint x="810" y="410" as="targetPoint" />
          </mxGeometry>
        </mxCell>
        <mxCell id="K3IvD1-hRMfwmRw_c2fl-10" value="&lt;font size=&quot;1&quot; style=&quot;&quot; color=&quot;#ffffff&quot; face=&quot;Verdana&quot;&gt;&lt;b style=&quot;font-size: 14px;&quot;&gt;F&lt;/b&gt;&lt;/font&gt;" style="ellipse;whiteSpace=wrap;html=1;aspect=fixed;fillColor=#000000;fontColor=#ffffff;strokeColor=#120808;" vertex="1" parent="1">
          <mxGeometry x="550" y="330" width="40" height="40" as="geometry" />
        </mxCell>
        <mxCell id="K3IvD1-hRMfwmRw_c2fl-11" value="" style="endArrow=classic;html=1;rounded=0;exitX=1;exitY=1;exitDx=0;exitDy=0;entryX=0;entryY=0;entryDx=0;entryDy=0;" edge="1" parent="1" source="K3IvD1-hRMfwmRw_c2fl-7" target="K3IvD1-hRMfwmRw_c2fl-10">
          <mxGeometry width="50" height="50" relative="1" as="geometry">
            <mxPoint x="690" y="410" as="sourcePoint" />
            <mxPoint x="740" y="360" as="targetPoint" />
          </mxGeometry>
        </mxCell>
        <mxCell id="K3IvD1-hRMfwmRw_c2fl-12" value="&lt;font style=&quot;font-size: 16px;&quot;&gt;parent 左旋&lt;/font&gt;" style="text;html=1;align=center;verticalAlign=middle;resizable=0;points=[];autosize=1;strokeColor=none;fillColor=none;" vertex="1" parent="1">
          <mxGeometry x="627" y="261" width="110" height="30" as="geometry" />
        </mxCell>
        <mxCell id="K3IvD1-hRMfwmRw_c2fl-13" value="&lt;font size=&quot;1&quot; style=&quot;&quot; color=&quot;#ffffff&quot; face=&quot;Verdana&quot;&gt;&lt;b style=&quot;font-size: 14px;&quot;&gt;A&lt;/b&gt;&lt;/font&gt;" style="ellipse;whiteSpace=wrap;html=1;aspect=fixed;fillColor=#000000;fontColor=#ffffff;strokeColor=#000000;" vertex="1" parent="1">
          <mxGeometry x="815.86" y="280" width="40" height="40" as="geometry" />
        </mxCell>
        <mxCell id="K3IvD1-hRMfwmRw_c2fl-14" value="&lt;font size=&quot;1&quot; style=&quot;&quot; color=&quot;#ffffff&quot; face=&quot;Verdana&quot;&gt;&lt;b style=&quot;font-size: 14px;&quot;&gt;B&lt;/b&gt;&lt;/font&gt;" style="ellipse;whiteSpace=wrap;html=1;aspect=fixed;fillColor=#000000;" vertex="1" parent="1">
          <mxGeometry x="760" y="350" width="40" height="40" as="geometry" />
        </mxCell>
        <mxCell id="K3IvD1-hRMfwmRw_c2fl-15" value="" style="endArrow=classic;html=1;rounded=0;exitX=0;exitY=1;exitDx=0;exitDy=0;entryX=1;entryY=0;entryDx=0;entryDy=0;" edge="1" parent="1" source="K3IvD1-hRMfwmRw_c2fl-13" target="K3IvD1-hRMfwmRw_c2fl-14">
          <mxGeometry width="50" height="50" relative="1" as="geometry">
            <mxPoint x="1084.86" y="410" as="sourcePoint" />
            <mxPoint x="780.0021356237306" y="346.8578643762694" as="targetPoint" />
          </mxGeometry>
        </mxCell>
        <mxCell id="K3IvD1-hRMfwmRw_c2fl-16" value="" style="endArrow=classic;html=1;rounded=0;exitX=1;exitY=1;exitDx=0;exitDy=0;entryX=0;entryY=0;entryDx=0;entryDy=0;" edge="1" parent="1" source="K3IvD1-hRMfwmRw_c2fl-13" target="K3IvD1-hRMfwmRw_c2fl-18">
          <mxGeometry width="50" height="50" relative="1" as="geometry">
            <mxPoint x="1084.86" y="410" as="sourcePoint" />
            <mxPoint x="891.7178643762694" y="351.8578643762694" as="targetPoint" />
          </mxGeometry>
        </mxCell>
        <mxCell id="K3IvD1-hRMfwmRw_c2fl-17" value="&lt;font size=&quot;1&quot; style=&quot;&quot; color=&quot;#ffffff&quot; face=&quot;Verdana&quot;&gt;&lt;b style=&quot;font-size: 14px;&quot;&gt;D&lt;/b&gt;&lt;/font&gt;" style="ellipse;whiteSpace=wrap;html=1;aspect=fixed;fillColor=#e51400;fontColor=#ffffff;strokeColor=#B20000;" vertex="1" parent="1">
          <mxGeometry x="910" y="221" width="40" height="40" as="geometry" />
        </mxCell>
        <mxCell id="K3IvD1-hRMfwmRw_c2fl-18" value="&lt;font size=&quot;1&quot; style=&quot;&quot; color=&quot;#ffffff&quot; face=&quot;Verdana&quot;&gt;&lt;b style=&quot;font-size: 14px;&quot;&gt;E&lt;/b&gt;&lt;/font&gt;" style="ellipse;whiteSpace=wrap;html=1;aspect=fixed;fillColor=#e51400;fontColor=#ffffff;strokeColor=#B20000;" vertex="1" parent="1">
          <mxGeometry x="870" y="350" width="40" height="40" as="geometry" />
        </mxCell>
        <mxCell id="K3IvD1-hRMfwmRw_c2fl-20" value="&lt;font size=&quot;1&quot; style=&quot;&quot; color=&quot;#ffffff&quot; face=&quot;Verdana&quot;&gt;&lt;b style=&quot;font-size: 14px;&quot;&gt;F&lt;/b&gt;&lt;/font&gt;" style="ellipse;whiteSpace=wrap;html=1;aspect=fixed;fillColor=#000000;fontColor=#ffffff;strokeColor=#120808;" vertex="1" parent="1">
          <mxGeometry x="980" y="280" width="40" height="40" as="geometry" />
        </mxCell>
        <mxCell id="K3IvD1-hRMfwmRw_c2fl-21" value="" style="endArrow=classic;html=1;rounded=0;exitX=1;exitY=1;exitDx=0;exitDy=0;entryX=0;entryY=0;entryDx=0;entryDy=0;" edge="1" parent="1" source="K3IvD1-hRMfwmRw_c2fl-17" target="K3IvD1-hRMfwmRw_c2fl-20">
          <mxGeometry width="50" height="50" relative="1" as="geometry">
            <mxPoint x="1120" y="410" as="sourcePoint" />
            <mxPoint x="1170" y="360" as="targetPoint" />
          </mxGeometry>
        </mxCell>
        <mxCell id="K3IvD1-hRMfwmRw_c2fl-25" value="" style="endArrow=classic;html=1;rounded=0;exitX=0;exitY=1;exitDx=0;exitDy=0;entryX=1;entryY=0;entryDx=0;entryDy=0;" edge="1" parent="1" source="K3IvD1-hRMfwmRw_c2fl-17" target="K3IvD1-hRMfwmRw_c2fl-13">
          <mxGeometry width="50" height="50" relative="1" as="geometry">
            <mxPoint x="832" y="324" as="sourcePoint" />
            <mxPoint x="804" y="366" as="targetPoint" />
          </mxGeometry>
        </mxCell>
      </root>
    </mxGraphModel>
  </diagram>
</mxfile>
